<?xml version="1.0" encoding="UTF-8" standalone="no"?>
<!-- Created with Inkscape (http://www.inkscape.org/) -->

<svg
   width="494.24301mm"
   height="135.467mm"
   viewBox="0 0 494.243 135.46699"
   version="1.1"
   id="svg1"
   xml:space="preserve"
   sodipodi:docname="140d.svg"
   inkscape:version="1.4.2 (ebf0e940d0, 2025-05-08)"
   xmlns:inkscape="http://www.inkscape.org/namespaces/inkscape"
   xmlns:sodipodi="http://sodipodi.sourceforge.net/DTD/sodipodi-0.dtd"
   xmlns="http://www.w3.org/2000/svg"
   xmlns:svg="http://www.w3.org/2000/svg"><sodipodi:namedview
     id="namedview1"
     pagecolor="#ffffff"
     bordercolor="#000000"
     borderopacity="0.25"
     inkscape:showpageshadow="2"
     inkscape:pageopacity="0.0"
     inkscape:pagecheckerboard="true"
     inkscape:deskcolor="#d1d1d1"
     inkscape:document-units="mm"
     inkscape:zoom="0.70911897"
     inkscape:cx="1145.788"
     inkscape:cy="389.21537"
     inkscape:window-width="1920"
     inkscape:window-height="1007"
     inkscape:window-x="0"
     inkscape:window-y="0"
     inkscape:window-maximized="1"
     inkscape:current-layer="layer1" /><defs
     id="defs1"><clipPath
       clipPathUnits="userSpaceOnUse"
       id="clipPath27"><rect
         style="fill:#000000;stroke-width:0.264583"
         id="rect28"
         width="494.24301"
         height="135.467"
         x="0"
         y="-0.00015904335" /></clipPath></defs><g
     inkscape:label="Layer 1"
     inkscape:groupmode="layer"
     id="layer1"><path
       id="rect15"
       style="stroke-width:0.264583"
       d="m 225.57683,122.94597 c 7.162,0 12.92779,7.76617 12.92779,17.41295 0,9.64677 -5.76579,17.41295 -12.92779,17.41295 -7.162,0 -12.9278,-7.76618 -12.9278,-17.41295 0,-9.64678 5.7658,-17.41295 12.9278,-17.41295 z M 32.715237,118.19698 c 5.846529,0 10.553302,7.53084 10.553302,16.88529 0,9.35444 -4.706773,16.88528 -10.553302,16.88528 -5.84653,0 -10.553303,-7.53084 -10.553303,-16.88528 0,-9.35445 4.706773,-16.88529 10.553303,-16.88529 z m 48.281355,12.66397 c 29.671138,0 53.558008,4.47143 53.558008,10.02563 0,5.55421 -23.88687,10.02564 -53.558008,10.02564 -29.671136,0 -53.558007,-4.47143 -53.558007,-10.02564 0,-5.5542 23.886871,-10.02563 53.558007,-10.02563 z m 385.459378,-3.69366 c 1.75396,0 3.16599,2.94173 3.16599,6.59581 0,3.65409 -1.41203,6.59582 -3.16599,6.59582 -1.75396,0 -3.16599,-2.94173 -3.16599,-6.59582 0,-3.65408 1.41203,-6.59581 3.16599,-6.59581 z m -8.97033,0 c 4.67722,0 8.44264,3.64775 8.44264,8.17881 0,4.53106 -3.76542,8.17881 -8.44264,8.17881 -4.67722,0 -8.44264,-3.64775 -8.44264,-8.17881 0,-4.53106 3.76542,-8.17881 8.44264,-8.17881 z m -37.46424,-3.69366 c 22.80147,0 41.15788,7.2955 41.15788,16.35762 0,9.06212 -18.35641,16.35762 -41.15788,16.35762 -22.80146,0 -41.15787,-7.2955 -41.15787,-16.35762 0,-9.06212 18.35641,-16.35762 41.15787,-16.35762 z M 277.55185,122.4183 c 18.41656,0 33.2429,10.7079 33.2429,24.00876 0,13.30085 -14.82634,24.00876 -33.2429,24.00876 -18.41657,0 -33.24291,-10.70791 -33.24291,-24.00876 0,-13.30086 14.82634,-24.00876 33.24291,-24.00876 z m 38.78339,6.33199 c 30.84044,0 55.66867,6.35414 55.66867,14.24696 0,7.89281 -24.82823,14.24696 -55.66867,14.24696 -30.84045,0 -55.66868,-6.35415 -55.66868,-14.24696 0,-7.89282 24.82823,-14.24696 55.66868,-14.24696 z m -139.83127,2.63832 c 38.73326,0 69.91563,7.17783 69.91563,16.09379 0,8.91595 -31.18237,16.09378 -69.91563,16.09378 -38.73325,0 -69.91562,-7.17783 -69.91562,-16.09378 0,-8.91596 31.18237,-16.09379 69.91562,-16.09379 z m -48.80901,-5.80431 c 10.52375,0 18.99594,4.00075 18.99594,8.9703 0,4.96955 -8.47219,8.97031 -18.99594,8.97031 -10.52376,0 -18.99595,-4.00076 -18.99595,-8.97031 0,-4.96955 8.47219,-8.9703 18.99595,-8.9703 z m 117.40549,-0.52767 c 11.54689,0 20.84277,4.35377 20.84277,9.76181 0,5.40804 -9.29588,9.7618 -20.84277,9.7618 -11.5469,0 -20.84277,-4.35376 -20.84277,-9.7618 0,-5.40804 9.29587,-9.76181 20.84277,-9.76181 z m 125.05663,-1.05533 c 13.88551,0 25.06409,9.1782 25.06409,20.57894 0,11.40073 -11.17858,20.57894 -25.06409,20.57894 -13.88551,0 -25.06409,-9.17821 -25.06409,-20.57894 0,-11.40074 11.17858,-20.57894 25.06409,-20.57894 z m -2e-5,-134.554603 c 11.83922,0 21.37044,4.4714342 21.37044,10.02563691 0,5.55420269 -9.53122,10.02563669 -21.37044,10.02563669 -11.83922,0 -21.37044,-4.471434 -21.37044,-10.02563669 0,-5.55420271 9.53122,-10.02563691 21.37044,-10.02563691 z m -124.52895,-0.527664 c 12.42388,0 22.42577,5.17745 22.42577,11.60863214 0,6.43118216 -10.00189,11.60863186 -22.42577,11.60863186 -12.42387,0 -22.42576,-5.1774497 -22.42576,-11.60863186 0,-6.43118214 10.00189,-11.60863214 22.42576,-11.60863214 z m -114.76716,-5.276651 c 11.69306,0 21.1066,7.4131666 21.1066,16.62145009 0,9.20828351 -9.41354,16.62145091 -21.1066,16.62145091 -11.69306,0 -21.10661,-7.4131674 -21.10661,-16.62145091 0,-9.20828349 9.41355,-16.62145009 21.10661,-16.62145009 z M 384.17597,0 h 84.66667 q 10.50773,0 17.95387,7.4461313 7.44613,7.4461307 7.44613,17.9538687 v 84.66667 q 0,10.50773 -7.44613,17.95387 -7.44614,7.44613 -17.95387,7.44613 h -84.66667 q -10.50773,0 -17.95386,-7.44613 -7.44614,-7.44614 -7.44614,-17.95387 V 25.4 q 0,-10.507738 7.44614,-17.9538687 Q 373.66824,0 384.17597,0 Z m 25.62679,41.728571 q 15.72381,0 18.67202,0.226786 11.94405,0.831548 16.93334,5.972024 5.74524,5.896429 5.74524,19.503571 0,4.913691 -0.71816,8.769048 -0.71815,3.855357 -2.07887,6.576786 -1.36071,2.721428 -3.32619,4.686904 -1.96548,1.965477 -4.42232,3.137198 -2.45685,1.17173 -5.36726,1.88989 -2.91042,0.71815 -6.23661,0.94494 -3.32619,0.22678 -6.99256,0.34017 -3.66637,0.1134 -7.59732,-0.0378 h -4.61131 z M 391.13074,28.272619 v 78.921431 q 0,2.34345 1.66309,4.00655 1.6631,1.66309 3.93095,1.66309 h 30.69167 q 21.16667,0 31.97678,-11.33929 10.81012,-11.339281 10.81012,-34.017852 0,-44.903572 -43.16488,-44.903572 h -30.31369 q -2.26785,0 -3.93095,1.663095 -1.66309,1.663096 -1.66309,4.006548 z M 264.58398,0 h 84.66667 q 10.50773,0 17.95387,7.4461313 7.44613,7.4461307 7.44613,17.9538687 v 84.66667 q 0,10.50773 -7.44613,17.95387 -7.44614,7.44613 -17.95387,7.44613 h -84.66667 q -10.50773,0 -17.95386,-7.44613 -7.44614,-7.44614 -7.44614,-17.95387 V 25.4 q 0,-10.507738 7.44614,-17.9538687 Q 254.07625,0 264.58398,0 Z m 42.33334,112.86369 q 11.33928,0 20.90208,-6.04762 9.5628,-6.04762 15.15684,-16.441962 5.59405,-10.394346 5.59405,-22.640775 0,-12.246428 -5.59405,-22.640773 -5.59404,-10.394346 -15.15684,-16.441965 -9.5628,-6.047619 -20.90208,-6.047619 -11.33929,0 -20.90209,6.047619 -9.56279,6.047619 -15.15684,16.441965 -5.59405,10.394345 -5.59405,22.640773 0,12.246429 5.59405,22.640775 5.59405,10.394342 15.15684,16.441962 9.5628,6.04762 20.90209,6.04762 z m -5.82084,-20.486312 q 3.02381,0.75595 5.66965,0.75595 9.60059,0 16.36637,-7.332733 6.76577,-7.332738 6.76577,-18.067262 0,-8.08869 -4.23333,-14.741071 z m 11.64167,-49.288092 q -3.02381,-0.755953 -5.66964,-0.755953 -9.67619,0.0756 -16.40417,7.370536 -6.72797,7.294941 -6.72797,18.029464 0,8.088691 4.23333,14.741072 z M 229.65866,0 q 10.50773,0 17.95387,7.4083337 7.44613,7.4083333 7.44613,17.9160713 v 84.666665 q 0,10.50773 -7.44613,17.95387 -7.44614,7.44613 -17.95387,7.44613 h -84.66667 q -10.50773,0 -17.95386,-7.44613 -7.44614,-7.44614 -7.44614,-17.95387 V 25.324405 q 0,-10.507738 7.44614,-17.9160713 Q 134.48426,0 144.99199,0 Z m -81.03809,69.925595 q -1.13393,1.28512 -1.85209,2.834822 -0.71815,1.549702 -1.13393,2.608036 -0.41577,1.058333 -0.60476,3.099404 -0.18899,2.041072 -0.22678,2.834822 -0.0378,0.79375 0,3.439583 0.0378,2.645833 0.0378,3.326191 0,2.343448 1.5497,4.006548 1.5497,1.66309 3.74196,1.66309 h 43.54286 v 13.455949 q 0,2.26786 1.70089,3.93096 1.7009,1.66309 3.96875,1.66309 h 9.6006 q 2.34345,0 4.00655,-1.6253 1.66309,-1.62529 1.66309,-3.96875 V 93.738091 h 9.97857 q 2.19226,0 3.74196,-1.66309 1.5497,-1.6631 1.5497,-4.006548 v -7.9375 q 0,-2.343453 -1.5497,-4.006548 -1.5497,-1.663095 -3.74196,-1.663095 h -9.97857 V 28.121429 q 0,-2.267857 -1.6631,-3.930953 -1.66309,-1.663095 -4.00654,-1.663095 h -9.6006 q -11.26369,0 -12.92679,1.889881 z m 19.35238,4.535715 q 8.01309,-9.298215 25.70238,-30.313691 V 74.46131 Z M 25.4,0 h 84.66667 Q 120.5744,0 128.02054,7.4461313 135.46667,14.892262 135.46667,25.4 v 84.66667 q 0,10.50773 -7.44613,17.95387 -7.44614,7.44613 -17.95387,7.44613 H 25.4 q -10.50773,0 -17.9538599,-7.44613 Q 0,120.5744 0,110.06667 V 25.4 Q 0,14.892262 7.4461401,7.4461313 14.89227,0 25.4,0 Z m 53.59703,29.255357 q 0,-3.628571 -1.28512,-5.140476 Q 76.42679,22.602976 73.025,22.602976 H 56.46965 q -1.43631,3.628572 -5.78304,8.353274 -4.34672,4.724702 -7.74851,5.934226 -1.36071,0.453572 -2.53244,2.267857 -1.17173,1.814286 -1.17173,3.401786 v 7.408333 q 0,2.267858 1.6631,3.930953 1.66309,1.663095 4.00655,1.663095 1.5119,0 2.91041,-0.377976 1.39851,-0.377976 2.30566,-0.79375 0.90714,-0.415774 2.04107,-1.43631 1.13393,-1.020535 1.5497,-1.436309 0.41577,-0.415774 1.51191,-1.776488 1.09613,-1.360715 1.24732,-1.511905 V 90.336308 H 44.67679 q -2.26786,0 -3.93095,1.6253 -1.6631,1.6253 -1.6631,3.96875 v 11.263692 q 0,2.34345 1.6631,4.00655 1.66309,1.66309 3.93095,1.66309 h 46.037498 q 2.34345,0 4.006551,-1.66309 1.66309,-1.6631 1.66309,-4.00655 V 95.930358 q 0,-2.34345 -1.66309,-3.96875 -1.663101,-1.6253 -4.006551,-1.6253 H 78.99703 Z"
       clip-path="url(#clipPath27)" /></g></svg>
