<?xml version="1.0" encoding="UTF-8" standalone="no"?>
<!-- Created with Inkscape (http://www.inkscape.org/) -->

<svg
   width="494.24301mm"
   height="135.467mm"
   viewBox="0 0 494.243 135.467"
   version="1.1"
   id="svg1"
   xml:space="preserve"
   sodipodi:docname="140d.svg"
   inkscape:version="1.4.2 (ebf0e940d0, 2025-05-08)"
   xmlns:inkscape="http://www.inkscape.org/namespaces/inkscape"
   xmlns:sodipodi="http://sodipodi.sourceforge.net/DTD/sodipodi-0.dtd"
   xmlns="http://www.w3.org/2000/svg"
   xmlns:svg="http://www.w3.org/2000/svg"><sodipodi:namedview
     id="namedview1"
     pagecolor="#ffffff"
     bordercolor="#000000"
     borderopacity="0.25"
     inkscape:showpageshadow="2"
     inkscape:pageopacity="0.0"
     inkscape:pagecheckerboard="true"
     inkscape:deskcolor="#d1d1d1"
     inkscape:document-units="mm"
     inkscape:zoom="0.50142283"
     inkscape:cx="1076.9354"
     inkscape:cy="293.16575"
     inkscape:window-width="1920"
     inkscape:window-height="1007"
     inkscape:window-x="0"
     inkscape:window-y="0"
     inkscape:window-maximized="1"
     inkscape:current-layer="layer1" /><defs
     id="defs1" /><g
     inkscape:label="Layer 1"
     inkscape:groupmode="layer"
     id="layer1"><path
       fill="#000000"
       d="m 25.4,0 h 84.66667 Q 120.5744,0 128.02054,7.4461313 135.46667,14.892262 135.46667,25.4 v 84.66667 q 0,10.50773 -7.44613,17.95387 -7.44614,7.44613 -17.95387,7.44613 H 25.4 q -10.50773,0 -17.9538599,-7.44613 Q 0,120.5744 0,110.06667 V 25.4 Q 0,14.892262 7.4461401,7.4461313 14.89227,0 25.4,0 Z m 53.59703,29.255357 q 0,-3.628571 -1.28512,-5.140476 Q 76.42679,22.602976 73.025,22.602976 H 56.46965 q -1.43631,3.628572 -5.78304,8.353274 -4.34672,4.724702 -7.74851,5.934226 -1.36071,0.453572 -2.53244,2.267857 -1.17173,1.814286 -1.17173,3.401786 v 7.408333 q 0,2.267858 1.6631,3.930953 1.66309,1.663095 4.00655,1.663095 1.5119,0 2.91041,-0.377976 1.39851,-0.377976 2.30566,-0.79375 0.90714,-0.415774 2.04107,-1.43631 1.13393,-1.020535 1.5497,-1.436309 0.41577,-0.415774 1.51191,-1.776488 1.09613,-1.360715 1.24732,-1.511905 V 90.336308 H 44.67679 q -2.26786,0 -3.93095,1.6253 -1.6631,1.6253 -1.6631,3.96875 v 11.263692 q 0,2.34345 1.6631,4.00655 1.66309,1.66309 3.93095,1.66309 h 46.037498 q 2.34345,0 4.006551,-1.66309 1.66309,-1.6631 1.66309,-4.00655 V 95.930358 q 0,-2.34345 -1.66309,-3.96875 -1.663101,-1.6253 -4.006551,-1.6253 H 78.99703 Z"
       id="path1"
       style="stroke-width:0.0755952" /><path
       fill="#000000"
       d="m 229.65866,0 q 10.50773,0 17.95387,7.4083337 7.44613,7.4083333 7.44613,17.9160713 v 84.666665 q 0,10.50773 -7.44613,17.95387 -7.44614,7.44613 -17.95387,7.44613 h -84.66667 q -10.50773,0 -17.95386,-7.44613 -7.44614,-7.44614 -7.44614,-17.95387 V 25.324405 q 0,-10.507738 7.44614,-17.9160713 Q 134.48426,0 144.99199,0 Z m -81.03809,69.925595 q -1.13393,1.28512 -1.85209,2.834822 -0.71815,1.549702 -1.13393,2.608036 -0.41577,1.058333 -0.60476,3.099404 -0.18899,2.041072 -0.22678,2.834822 -0.0378,0.79375 0,3.439583 0.0378,2.645833 0.0378,3.326191 0,2.343448 1.5497,4.006548 1.5497,1.66309 3.74196,1.66309 h 43.54286 v 13.455949 q 0,2.26786 1.70089,3.93096 1.7009,1.66309 3.96875,1.66309 h 9.6006 q 2.34345,0 4.00655,-1.6253 1.66309,-1.62529 1.66309,-3.96875 V 93.738091 h 9.97857 q 2.19226,0 3.74196,-1.66309 1.5497,-1.6631 1.5497,-4.006548 v -7.9375 q 0,-2.343453 -1.5497,-4.006548 -1.5497,-1.663095 -3.74196,-1.663095 h -9.97857 V 28.121429 q 0,-2.267857 -1.6631,-3.930953 -1.66309,-1.663095 -4.00654,-1.663095 h -9.6006 q -11.26369,0 -12.92679,1.889881 z m 19.35238,4.535715 q 8.01309,-9.298215 25.70238,-30.313691 V 74.46131 Z"
       id="path1-6"
       style="stroke-width:0.0755952" /><path
       fill="#000000"
       d="m 264.58398,0 h 84.66667 q 10.50773,0 17.95387,7.4461313 7.44613,7.4461307 7.44613,17.9538687 v 84.66667 q 0,10.50773 -7.44613,17.95387 -7.44614,7.44613 -17.95387,7.44613 h -84.66667 q -10.50773,0 -17.95386,-7.44613 -7.44614,-7.44614 -7.44614,-17.95387 V 25.4 q 0,-10.507738 7.44614,-17.9538687 Q 254.07625,0 264.58398,0 Z m 42.33334,112.86369 q 11.33928,0 20.90208,-6.04762 9.5628,-6.04762 15.15684,-16.441962 5.59405,-10.394346 5.59405,-22.640775 0,-12.246428 -5.59405,-22.640773 -5.59404,-10.394346 -15.15684,-16.441965 -9.5628,-6.047619 -20.90208,-6.047619 -11.33929,0 -20.90209,6.047619 -9.56279,6.047619 -15.15684,16.441965 -5.59405,10.394345 -5.59405,22.640773 0,12.246429 5.59405,22.640775 5.59405,10.394342 15.15684,16.441962 9.5628,6.04762 20.90209,6.04762 z m -5.82084,-20.486312 q 3.02381,0.75595 5.66965,0.75595 9.60059,0 16.36637,-7.332733 6.76577,-7.332738 6.76577,-18.067262 0,-8.08869 -4.23333,-14.741071 z m 11.64167,-49.288092 q -3.02381,-0.755953 -5.66964,-0.755953 -9.67619,0.0756 -16.40417,7.370536 -6.72797,7.294941 -6.72797,18.029464 0,8.088691 4.23333,14.741072 z"
       id="path1-2"
       style="stroke-width:0.0755952" /><path
       fill="#000000"
       d="m 384.17597,0 h 84.66667 q 10.50773,0 17.95387,7.4461313 7.44613,7.4461307 7.44613,17.9538687 v 84.66667 q 0,10.50773 -7.44613,17.95387 -7.44614,7.44613 -17.95387,7.44613 h -84.66667 q -10.50773,0 -17.95386,-7.44613 -7.44614,-7.44614 -7.44614,-17.95387 V 25.4 q 0,-10.507738 7.44614,-17.9538687 Q 373.66824,0 384.17597,0 Z m 25.62679,41.728571 q 15.72381,0 18.67202,0.226786 11.94405,0.831548 16.93334,5.972024 5.74524,5.896429 5.74524,19.503571 0,4.913691 -0.71816,8.769048 -0.71815,3.855357 -2.07887,6.576786 -1.36071,2.721428 -3.32619,4.686904 -1.96548,1.965477 -4.42232,3.137198 -2.45685,1.17173 -5.36726,1.88989 -2.91042,0.71815 -6.23661,0.94494 -3.32619,0.22678 -6.99256,0.34017 -3.66637,0.1134 -7.59732,-0.0378 h -4.61131 z M 391.13074,28.272619 v 78.921431 q 0,2.34345 1.66309,4.00655 1.6631,1.66309 3.93095,1.66309 h 30.69167 q 21.16667,0 31.97678,-11.33929 10.81012,-11.339281 10.81012,-34.017852 0,-44.903572 -43.16488,-44.903572 h -30.31369 q -2.26785,0 -3.93095,1.663095 -1.66309,1.663096 -1.66309,4.006548 z"
       id="path1-3"
       style="stroke-width:0.0755952" /><rect
       style="fill:#000000;stroke-width:0.264583"
       id="rect1"
       width="42.213211"
       height="33.242901"
       x="109.75434"
       y="-16.357618"
       rx="120" /><rect
       style="fill:#000000;stroke-width:0.264583"
       id="rect2"
       width="44.851532"
       height="23.217264"
       x="223.20235"
       y="-11.080967"
       rx="120" /><rect
       style="fill:#000000;stroke-width:0.264583"
       id="rect3"
       width="42.740875"
       height="20.051273"
       x="348.78662"
       y="-10.553303"
       rx="120" /><rect
       style="fill:#000000;stroke-width:0.264583"
       id="rect4"
       width="50.128185"
       height="41.157879"
       x="345.09299"
       y="124.0013"
       rx="120" /><rect
       style="fill:#000000;stroke-width:0.264583"
       id="rect5"
       width="41.685543"
       height="19.523607"
       x="224.25768"
       y="125.05663"
       rx="120" /><rect
       style="fill:#000000;stroke-width:0.264583"
       id="rect6"
       width="37.991886"
       height="17.940615"
       x="108.69901"
       y="125.5843"
       rx="120" /><rect
       style="fill:#000000;stroke-width:0.264583"
       id="rect7"
       width="139.83125"
       height="32.187572"
       x="106.58835"
       y="131.38861"
       rx="120" /><rect
       style="fill:#000000;stroke-width:0.264583"
       id="rect8"
       width="111.33734"
       height="28.493916"
       x="260.66656"
       y="128.75029"
       rx="120" /><rect
       style="fill:#000000;stroke-width:0.264583"
       id="rect9"
       width="66.485802"
       height="48.017525"
       x="244.30894"
       y="122.4183"
       rx="120" /><rect
       style="fill:#000000;stroke-width:0.264583"
       id="rect10"
       width="82.315758"
       height="32.715237"
       x="378.86353"
       y="123.47363"
       rx="120" /><rect
       style="fill:#000000;stroke-width:0.264583"
       id="rect11"
       width="16.885283"
       height="16.357618"
       x="449.043"
       y="127.16729"
       rx="120" /><rect
       style="fill:#000000;stroke-width:0.264583"
       id="rect12"
       width="6.3319812"
       height="13.191628"
       x="463.28998"
       y="127.16729"
       rx="120" /><rect
       style="fill:#000000;stroke-width:0.264583"
       id="rect13"
       width="107.11601"
       height="20.051273"
       x="27.438585"
       y="130.86095"
       rx="120" /><rect
       style="fill:#000000;stroke-width:0.264583"
       id="rect14"
       width="21.106606"
       height="33.770565"
       x="22.161934"
       y="118.19698"
       rx="120" /><rect
       style="fill:#000000;stroke-width:0.264583"
       id="rect15"
       width="25.855591"
       height="34.825897"
       x="212.64903"
       y="122.94597"
       rx="120" /></g></svg>
